{"glyphs":{"0":{"ha":924,"x_min":79,"x_max":846,"o":"m 463 -11 q 287 27 360 -11 q 168 134 214 65 q 101 294 122 203 q 79 490 79 385 q 100 687 79 596 q 167 847 121 778 q 285 954 213 915 q 463 993 358 993 q 647 951 572 993 q 765 836 721 908 q 827 674 808 764 q 846 490 846 585 q 827 306 846 396 q 765 145 808 217 q 647 31 721 74 q 463 -11 572 -11 m 463 99 q 595 134 544 99 q 674 228 646 169 q 711 355 701 286 q 721 490 721 424 q 711 624 721 556 q 674 752 701 693 q 595 847 646 811 q 463 883 544 883 q 328 847 379 883 q 249 752 276 811 q 213 624 222 693 q 203 490 203 556 q 213 355 203 424 q 249 228 222 286 q 328 134 276 169 q 463 99 379 99 z "},"1":{"ha":504,"x_min":35,"x_max":356,"o":"m 235 0 l 235 788 l 35 788 l 35 869 q 133 883 90 874 q 210 915 176 892 q 271 982 244 938 l 356 982 l 356 0 l 235 0 z "},"2":{"ha":786,"x_min":42,"x_max":717,"o":"m 42 0 l 42 101 l 319 342 q 402 412 357 374 q 488 494 447 450 q 556 590 529 539 q 583 697 583 640 q 531 834 583 786 q 389 882 478 882 q 265 853 318 882 q 196 768 213 824 l 67 768 q 130 894 81 844 q 249 968 179 943 q 394 993 319 993 q 556 960 486 993 q 666 863 626 926 q 706 708 706 800 q 672 550 706 618 q 583 427 638 482 q 465 319 528 372 l 217 110 l 717 110 l 717 0 l 42 0 z "},"3":{"ha":832,"x_min":46,"x_max":753,"o":"m 404 -11 q 287 1 346 -11 q 177 39 228 13 q 91 110 126 65 q 46 219 56 154 l 171 219 q 226 146 188 172 q 313 109 265 119 q 406 99 361 99 q 475 104 438 99 q 548 128 513 110 q 606 181 583 146 q 628 275 628 217 q 607 365 628 331 q 551 416 586 399 q 474 439 517 433 q 389 444 432 444 l 294 444 l 294 553 l 351 553 q 443 562 400 553 q 519 590 486 571 q 572 642 553 610 q 590 721 590 674 q 562 824 590 789 q 489 871 533 858 q 396 883 444 883 q 316 872 357 883 q 243 834 275 860 q 200 765 211 808 l 79 765 q 118 869 88 826 q 194 940 149 913 q 294 981 239 968 q 406 993 349 993 q 523 980 468 993 q 619 937 578 967 q 685 858 661 907 q 710 740 710 810 q 693 646 710 689 q 644 571 676 603 q 563 518 611 539 q 667 474 625 507 q 731 392 710 440 q 753 285 753 344 q 719 133 753 192 q 633 44 686 75 q 519 1 581 13 q 404 -11 458 -11 z "},"4":{"ha":879,"x_min":58,"x_max":828,"o":"m 592 0 l 592 196 l 58 196 l 58 286 l 539 982 l 713 982 l 713 306 l 828 306 l 828 196 l 713 196 l 713 0 l 592 0 m 204 306 l 592 306 l 592 872 l 204 306 z "},"5":{"ha":856,"x_min":86,"x_max":781,"o":"m 428 -12 q 310 1 367 -12 q 208 44 254 15 q 131 117 163 72 q 86 222 99 161 l 208 222 q 257 156 224 183 q 333 113 290 128 q 417 99 375 99 q 538 121 485 99 q 624 190 592 143 q 656 310 656 236 q 594 465 656 411 q 436 519 533 519 q 328 499 378 519 q 239 442 279 478 l 114 442 l 158 982 l 746 982 l 746 871 l 267 871 l 239 563 q 331 612 276 593 q 464 631 385 631 q 630 592 558 631 q 741 483 701 553 q 781 317 781 413 q 734 140 781 214 q 608 27 688 67 q 428 -12 528 -12 z "},"6":{"ha":865,"x_min":81,"x_max":790,"o":"m 456 -11 q 284 27 356 -11 q 167 131 213 65 q 101 281 122 197 q 81 458 81 365 q 102 665 81 568 q 170 835 124 761 q 292 951 217 908 q 472 993 367 993 q 605 969 543 993 q 713 897 667 944 q 781 779 758 849 l 654 779 q 578 857 629 831 q 471 883 526 883 q 361 859 407 883 q 284 794 315 835 q 234 703 253 754 q 207 596 215 651 q 199 488 199 540 q 273 567 231 536 q 366 612 315 597 q 469 626 417 626 q 638 587 567 626 q 750 477 710 547 q 790 315 790 407 q 747 144 790 218 q 628 30 704 71 q 456 -11 553 -11 m 453 99 q 563 126 515 99 q 639 199 611 153 q 667 303 667 246 q 640 411 667 364 q 567 486 614 458 q 458 514 521 514 q 350 488 401 514 q 267 416 299 463 q 236 306 236 369 q 265 201 236 247 q 342 126 293 154 q 453 99 392 99 z "},"7":{"ha":701,"x_min":17,"x_max":669,"o":"m 139 0 l 536 871 l 17 871 l 17 982 l 669 982 l 669 882 l 272 0 l 139 0 z "},"8":{"ha":864,"x_min":79,"x_max":785,"o":"m 432 -11 q 302 3 365 -11 q 189 51 239 18 q 109 140 139 85 q 79 274 79 194 q 99 375 79 329 q 155 454 118 421 q 242 507 192 488 q 157 573 186 533 q 118 656 128 613 q 108 733 108 699 q 135 851 108 803 q 209 932 163 900 q 313 978 256 964 q 432 993 371 993 q 551 978 493 993 q 655 932 608 964 q 728 851 701 900 q 756 733 756 803 q 745 656 756 697 q 706 576 735 614 q 621 511 676 538 q 710 457 674 492 q 766 376 747 422 q 785 274 785 329 q 755 140 785 194 q 674 51 725 85 q 561 3 624 18 q 432 -11 499 -11 m 432 99 q 504 106 465 99 q 578 131 543 113 q 637 184 614 150 q 660 272 660 218 q 627 374 660 336 q 542 428 594 411 q 432 444 490 444 q 322 428 375 444 q 236 374 269 411 q 203 272 203 336 q 226 184 203 218 q 285 131 249 150 q 360 106 321 113 q 432 99 399 99 m 432 551 q 529 569 485 551 q 602 622 574 586 q 631 711 631 657 q 604 813 632 775 q 531 867 576 850 q 432 883 486 883 q 331 866 376 883 q 260 812 286 849 q 233 717 233 775 q 262 622 233 658 q 335 568 290 585 q 432 551 381 551 z "},"9":{"ha":861,"x_min":75,"x_max":783,"o":"m 399 -11 q 263 13 328 -11 q 151 84 199 36 q 86 203 104 132 l 219 203 q 301 124 244 150 q 413 99 357 99 q 537 130 488 99 q 615 215 586 161 q 656 337 643 269 q 668 476 668 404 q 668 492 668 483 q 668 507 668 500 q 597 420 642 453 q 499 373 553 388 q 389 358 444 358 q 231 394 303 358 q 117 498 160 429 q 75 665 75 567 q 118 838 75 764 q 238 952 161 911 q 417 993 315 993 q 597 947 525 993 q 709 825 668 901 q 767 658 750 749 q 783 476 783 567 q 763 284 783 372 q 696 129 742 196 q 576 26 650 63 q 399 -11 503 -11 m 407 469 q 516 494 467 469 q 595 564 565 519 q 625 668 625 608 q 597 780 625 732 q 522 856 569 828 q 413 883 474 883 q 302 856 350 883 q 226 781 254 828 q 199 676 199 733 q 255 524 199 579 q 407 469 311 469 z "},"A":{"ha":931,"x_min":14,"x_max":917,"o":"m 14 0 l 379 982 l 553 982 l 917 0 l 786 0 l 708 211 l 222 211 l 144 0 l 14 0 m 263 321 l 668 321 l 465 876 l 263 321 z "},"B":{"ha":910,"x_min":119,"x_max":842,"o":"m 119 0 l 119 982 l 464 982 q 597 970 538 982 q 701 931 657 958 q 768 856 744 903 q 792 736 792 808 q 758 603 792 661 q 653 517 724 544 q 794 440 747 500 q 842 279 842 379 q 811 143 842 197 q 727 58 781 89 q 604 13 674 26 q 457 0 535 0 l 119 0 m 240 110 l 453 110 q 542 115 496 110 q 629 135 589 119 q 694 186 669 151 q 719 279 719 221 q 701 361 719 329 q 651 411 682 393 q 579 436 619 429 q 497 443 539 443 l 240 443 l 240 110 m 240 551 l 429 551 q 525 560 481 551 q 603 590 569 569 q 655 644 636 611 q 674 728 674 678 q 646 822 675 792 q 569 863 617 853 q 465 872 521 872 l 240 872 l 240 551 z "},"C":{"ha":978,"x_min":67,"x_max":919,"o":"m 518 -11 q 266 53 367 -11 q 116 231 165 118 q 67 490 67 344 q 117 748 67 635 q 267 927 167 861 q 521 993 368 993 q 708 959 629 993 q 835 865 786 925 q 901 725 883 806 l 779 725 q 690 840 758 797 q 517 883 621 883 q 328 828 400 883 q 224 685 257 774 q 190 494 190 597 q 225 296 190 386 q 333 152 260 206 q 521 99 407 99 q 645 118 590 99 q 737 174 700 138 q 788 257 774 210 l 919 257 q 845 116 899 176 q 710 22 792 56 q 518 -11 628 -11 z "},"D":{"ha":1000,"x_min":121,"x_max":932,"o":"m 121 0 l 121 982 l 469 982 q 725 920 622 982 q 880 748 828 858 q 932 490 932 638 q 881 234 932 344 q 726 62 829 124 q 469 0 624 0 l 121 0 m 242 110 l 461 110 q 657 158 581 110 q 771 292 733 207 q 808 490 808 378 q 772 686 808 600 q 660 822 735 772 q 468 872 585 872 l 242 872 l 242 110 z "},"E":{"ha":847,"x_min":121,"x_max":781,"o":"m 121 0 l 121 982 l 781 982 l 781 872 l 242 872 l 242 542 l 726 542 l 726 431 l 242 431 l 242 110 l 781 110 l 781 0 l 121 0 z "},"F":{"ha":832,"x_min":121,"x_max":781,"o":"m 121 0 l 121 982 l 781 982 l 781 872 l 242 872 l 242 504 l 713 504 l 713 393 l 242 393 l 242 0 l 121 0 z "},"G":{"ha":1000,"x_min":67,"x_max":933,"o":"m 519 -11 q 266 53 367 -11 q 116 231 165 118 q 67 488 67 343 q 94 688 67 596 q 176 848 121 779 q 316 955 232 917 q 514 993 400 993 q 703 960 622 993 q 835 867 783 926 q 908 725 888 807 l 776 725 q 726 809 763 774 q 636 864 690 844 q 513 883 582 883 q 365 853 426 883 q 265 769 304 822 q 208 644 226 715 q 190 490 190 572 q 225 293 190 382 q 332 151 260 204 q 518 99 404 99 q 679 133 613 99 q 782 231 746 167 q 818 386 818 296 l 496 386 l 496 496 l 933 496 l 933 414 q 883 190 933 286 q 741 42 833 94 q 519 -11 649 -11 z "},"H":{"ha":1010,"x_min":121,"x_max":889,"o":"m 121 0 l 121 982 l 242 982 l 242 538 l 768 538 l 768 982 l 889 982 l 889 0 l 768 0 l 768 426 l 242 426 l 242 0 l 121 0 z "},"I":{"ha":363,"x_min":121,"x_max":242,"o":"m 121 0 l 121 982 l 242 982 l 242 0 l 121 0 z "},"J":{"ha":775,"x_min":58,"x_max":661,"o":"m 369 -11 q 241 6 297 -11 q 146 57 185 22 q 85 145 107 92 q 58 271 63 199 l 181 271 q 208 179 186 218 q 269 119 229 140 q 369 99 308 99 q 472 126 435 99 q 524 203 508 154 q 540 314 540 251 l 540 982 l 661 982 l 661 339 q 646 198 661 263 q 597 87 631 133 q 506 15 563 40 q 369 -11 450 -11 z "},"K":{"ha":868,"x_min":121,"x_max":849,"o":"m 121 0 l 121 982 l 242 982 l 242 529 l 386 529 l 707 982 l 846 982 l 493 494 l 849 0 l 706 0 l 397 419 l 242 419 l 242 0 l 121 0 z "},"L":{"ha":797,"x_min":121,"x_max":781,"o":"m 121 0 l 121 982 l 242 982 l 242 110 l 781 110 l 781 0 l 121 0 z "},"M":{"ha":1189,"x_min":121,"x_max":1068,"o":"m 121 0 l 121 982 l 304 982 l 599 442 l 889 982 l 1068 982 l 1068 0 l 947 0 l 947 854 l 624 257 l 568 257 l 242 854 l 242 0 l 121 0 z "},"N":{"ha":1029,"x_min":121,"x_max":908,"o":"m 121 0 l 121 982 l 275 982 l 788 164 l 788 982 l 908 982 l 908 0 l 757 0 l 242 815 l 242 0 l 121 0 z "},"O":{"ha":1057,"x_min":67,"x_max":990,"o":"m 529 -11 q 274 54 376 -11 q 119 233 171 119 q 67 490 67 347 q 119 749 67 635 q 274 928 171 863 q 529 993 376 993 q 784 928 682 993 q 938 749 886 863 q 990 490 990 635 q 938 233 990 347 q 784 54 886 119 q 529 -11 682 -11 m 529 99 q 721 152 646 99 q 831 294 796 206 q 867 490 867 383 q 847 642 867 571 q 785 768 826 714 q 679 853 743 822 q 529 883 615 883 q 338 829 414 883 q 226 686 263 775 q 189 490 189 597 q 225 296 189 385 q 337 153 261 207 q 529 99 413 99 z "},"P":{"ha":875,"x_min":121,"x_max":807,"o":"m 121 0 l 121 982 l 461 982 q 647 947 569 982 q 766 839 725 911 q 807 656 807 767 q 759 473 807 547 q 628 361 711 399 q 436 324 544 324 l 242 324 l 242 0 l 121 0 m 242 433 l 431 433 q 613 487 543 433 q 683 661 683 540 q 626 819 683 767 q 456 872 569 872 l 242 872 l 242 433 z "},"Q":{"ha":1057,"x_min":67,"x_max":990,"o":"m 875 -175 l 728 26 q 635 -1 685 8 q 529 -11 586 -11 q 274 54 376 -11 q 119 233 171 119 q 67 490 67 347 q 119 749 67 635 q 274 928 171 863 q 529 993 376 993 q 784 928 682 993 q 938 749 886 863 q 990 490 990 635 q 949 262 990 364 q 829 92 908 160 l 969 -103 l 875 -175 m 529 99 q 721 152 646 99 q 831 294 796 206 q 867 490 867 383 q 831 688 867 599 q 719 830 794 776 q 529 883 644 883 q 338 829 414 883 q 226 686 263 775 q 189 490 189 597 q 225 296 189 385 q 337 153 261 207 q 529 99 413 99 z "},"R":{"ha":914,"x_min":121,"x_max":840,"o":"m 121 0 l 121 982 l 489 982 q 635 965 571 982 q 746 913 700 949 q 816 817 792 876 q 840 675 840 758 q 810 535 840 593 q 729 442 779 478 q 621 389 679 406 l 826 0 l 694 0 l 499 368 l 242 368 l 242 0 l 121 0 m 242 478 l 450 478 q 552 486 504 478 q 637 516 600 494 q 694 577 674 538 q 717 679 715 617 q 690 792 718 750 q 608 853 663 835 q 476 872 554 872 l 242 872 l 242 478 z "},"S":{"ha":906,"x_min":79,"x_max":825,"o":"m 475 -11 q 299 15 382 -11 q 158 99 217 40 q 79 257 100 158 l 206 257 q 269 160 225 194 q 369 112 313 125 q 483 99 426 99 q 590 115 540 99 q 670 167 639 131 q 701 260 701 203 q 685 332 701 304 q 641 377 669 360 q 574 406 613 394 q 464 433 522 422 q 349 460 406 444 q 244 499 293 475 q 194 533 218 513 q 152 580 169 553 q 124 642 135 607 q 114 718 114 676 q 133 826 114 781 q 186 904 153 872 q 264 956 219 936 q 359 984 308 975 q 461 993 410 993 q 620 967 546 993 q 744 885 694 942 q 797 731 793 828 l 679 731 q 640 822 672 789 q 561 869 608 856 q 461 883 514 883 q 383 876 422 883 q 310 852 343 869 q 258 805 278 835 q 239 729 239 775 q 252 665 239 693 q 288 619 265 638 q 339 588 311 600 q 487 547 406 560 q 639 508 568 533 q 715 474 681 494 q 774 425 750 453 q 812 362 799 397 q 825 282 825 326 q 797 145 825 201 q 721 54 769 89 q 609 4 672 19 q 475 -11 546 -11 z "},"T":{"ha":790,"x_min":19,"x_max":771,"o":"m 335 0 l 335 872 l 19 872 l 19 982 l 771 982 l 771 872 l 456 872 l 456 0 l 335 0 z "},"U":{"ha":1008,"x_min":114,"x_max":894,"o":"m 504 -11 q 281 46 367 -11 q 154 201 194 103 q 114 424 114 299 l 114 982 l 235 982 l 235 425 q 260 262 235 336 q 346 143 286 188 q 506 99 406 99 q 665 143 607 99 q 747 262 722 188 q 772 425 772 336 l 772 982 l 894 982 l 894 424 q 854 201 894 300 q 728 46 814 103 q 504 -11 642 -11 z "},"V":{"ha":949,"x_min":19,"x_max":929,"o":"m 388 0 l 19 982 l 151 982 l 475 104 l 799 982 l 929 982 l 563 0 l 388 0 z "},"W":{"ha":1365,"x_min":19,"x_max":1346,"o":"m 286 0 l 19 982 l 156 982 l 379 104 l 593 982 l 778 982 l 992 104 l 1215 982 l 1346 982 l 1079 0 l 896 0 l 682 867 l 468 0 l 286 0 z "},"X":{"ha":824,"x_min":19,"x_max":804,"o":"m 19 0 l 335 490 l 29 982 l 176 982 l 413 590 l 647 982 l 793 982 l 488 494 l 804 0 l 658 0 l 411 393 l 161 0 l 19 0 z "},"Y":{"ha":853,"x_min":19,"x_max":833,"o":"m 367 0 l 367 368 l 19 982 l 160 982 l 429 490 l 696 982 l 833 982 l 488 369 l 488 0 l 367 0 z "},"Z":{"ha":829,"x_min":61,"x_max":768,"o":"m 61 0 l 61 96 l 606 872 l 79 872 l 79 982 l 768 982 l 768 888 l 217 110 l 758 110 l 758 0 l 61 0 z "},"a":{"ha":771,"x_min":68,"x_max":681,"o":"m 328 -8 q 231 5 278 -8 q 148 45 185 18 q 90 113 111 72 q 68 208 68 154 q 91 314 68 271 q 153 382 114 357 q 243 418 192 407 q 350 429 294 429 l 565 429 q 548 538 565 492 q 492 609 531 583 q 389 635 453 635 q 317 626 350 635 q 260 600 283 618 q 225 551 236 582 l 99 551 q 137 637 108 601 q 206 695 165 672 q 294 729 247 718 q 389 740 342 740 q 614 647 547 740 q 681 396 681 554 l 681 0 l 582 0 l 575 93 q 501 29 544 51 q 413 -1 458 7 q 328 -8 368 -8 m 339 96 q 459 119 408 96 q 538 186 510 142 q 565 294 565 231 l 565 331 l 436 331 q 346 329 390 331 q 265 318 301 328 q 208 285 229 308 q 186 217 186 261 q 208 149 186 175 q 265 109 229 122 q 339 96 300 96 z "},"b":{"ha":839,"x_min":93,"x_max":774,"o":"m 439 -8 q 347 3 389 -8 q 270 38 304 15 q 211 89 236 60 l 206 0 l 93 0 l 93 982 l 211 982 l 211 626 q 315 711 247 682 q 453 740 382 740 q 635 691 564 740 q 740 558 706 642 q 774 368 774 474 q 738 178 774 264 q 628 42 701 93 q 439 -8 554 -8 m 438 96 q 565 133 518 96 q 634 231 613 169 q 656 365 656 292 q 634 501 656 440 q 564 599 613 563 q 435 635 515 635 q 312 594 363 635 q 235 492 261 554 q 208 364 208 429 q 231 232 208 293 q 305 133 254 171 q 438 96 356 96 z "},"c":{"ha":768,"x_min":65,"x_max":711,"o":"m 406 -8 q 215 40 290 -8 q 102 172 139 88 q 65 364 65 257 q 103 553 65 468 q 220 690 142 639 q 419 740 299 740 q 553 715 494 740 q 651 642 613 690 q 706 522 690 594 l 585 522 q 519 609 564 583 q 413 635 474 635 q 279 596 329 635 q 206 495 229 557 q 183 364 183 433 q 207 231 183 292 q 281 133 231 169 q 410 96 331 96 q 520 121 468 96 q 589 210 572 146 l 711 210 q 652 86 697 135 q 542 15 607 38 q 406 -8 478 -8 z "},"d":{"ha":839,"x_min":65,"x_max":746,"o":"m 386 -8 q 206 41 276 -8 q 100 174 135 90 q 65 364 65 258 q 100 555 65 469 q 207 690 135 640 q 392 740 279 740 q 478 730 435 740 q 561 698 522 719 q 628 640 600 676 l 628 982 l 746 982 l 746 0 l 633 0 l 628 110 q 565 42 603 68 q 481 4 526 17 q 386 -8 435 -8 m 403 96 q 526 133 476 96 q 603 233 576 171 q 629 369 629 296 q 603 506 629 446 q 528 600 578 565 q 401 635 478 635 q 274 599 322 635 q 205 501 226 563 q 183 363 183 439 q 195 259 183 307 q 233 174 207 211 q 300 117 258 138 q 403 96 342 96 z "},"e":{"ha":796,"x_min":65,"x_max":735,"o":"m 410 -8 q 217 40 293 -8 q 103 172 140 88 q 65 365 65 257 q 105 559 65 475 q 221 692 144 643 q 408 740 297 740 q 556 708 494 740 q 658 621 618 675 q 717 502 699 567 q 732 372 735 438 q 730 347 731 360 q 728 322 729 335 l 185 322 q 217 207 190 258 q 292 126 243 156 q 413 96 340 96 q 485 105 449 96 q 552 136 522 114 q 594 196 582 158 l 715 196 q 653 80 699 125 q 543 13 607 35 q 410 -8 479 -8 m 188 425 l 611 425 q 583 535 610 488 q 512 608 557 582 q 404 635 467 635 q 290 606 336 635 q 218 529 243 576 q 188 425 193 482 z "},"f":{"ha":508,"x_min":44,"x_max":478,"o":"m 164 0 l 164 628 l 44 628 l 44 732 l 164 732 l 164 810 q 187 944 164 892 q 260 1021 210 996 q 394 1046 311 1046 l 478 1046 l 478 942 l 407 942 q 330 925 357 942 q 292 876 303 908 q 282 796 282 843 l 282 732 l 478 732 l 478 628 l 282 628 l 282 0 l 164 0 z "},"g":{"ha":839,"x_min":65,"x_max":746,"o":"m 411 -328 q 272 -305 336 -328 q 164 -233 208 -282 q 104 -110 119 -185 l 226 -110 q 268 -176 238 -151 q 339 -212 299 -201 q 418 -222 379 -222 q 540 -192 493 -222 q 607 -110 586 -162 q 628 8 628 -58 l 628 110 q 565 42 604 68 q 481 3 526 15 q 386 -8 435 -8 q 204 41 275 -8 q 99 174 133 90 q 65 364 65 258 q 100 555 65 469 q 207 690 135 640 q 392 740 279 740 q 521 717 456 740 q 628 640 586 693 l 633 732 l 746 732 l 746 6 q 709 -172 746 -97 q 598 -287 672 -247 q 411 -328 524 -328 m 403 96 q 526 133 476 96 q 603 233 576 171 q 629 369 629 296 q 603 506 629 446 q 528 600 578 565 q 401 635 478 635 q 274 599 322 635 q 205 501 226 563 q 183 365 183 440 q 206 226 183 288 q 276 131 228 165 q 403 96 325 96 z "},"h":{"ha":821,"x_min":93,"x_max":732,"o":"m 93 0 l 93 982 l 211 982 l 211 619 q 276 685 238 658 q 360 726 314 713 q 454 740 406 740 q 622 696 561 740 q 707 576 682 651 q 732 403 732 500 l 732 0 l 614 0 l 614 367 q 608 463 614 415 q 583 550 601 511 q 528 613 565 589 q 429 636 492 636 q 327 610 369 636 q 260 540 285 583 q 223 444 235 496 q 211 342 211 392 l 211 0 l 93 0 z "},"i":{"ha":304,"x_min":72,"x_max":232,"o":"m 93 0 l 93 732 l 211 732 l 211 0 l 93 0 m 151 840 q 94 863 115 840 q 72 919 72 885 q 94 976 72 954 q 151 997 117 997 q 208 975 183 997 q 232 919 232 953 q 208 863 232 885 q 151 840 185 840 z "},"j":{"ha":353,"x_min":-43,"x_max":271,"o":"m -43 -250 l -43 -147 l 7 -147 q 84 -131 57 -147 q 122 -81 111 -114 q 132 -1 132 -49 l 132 732 l 250 732 l 250 -14 q 227 -147 250 -94 q 154 -225 204 -200 q 21 -250 104 -250 l -43 -250 m 190 840 q 133 863 154 840 q 111 919 111 885 q 133 976 111 954 q 190 997 156 997 q 247 975 222 997 q 271 919 271 953 q 247 863 271 885 q 190 840 224 840 z "},"k":{"ha":722,"x_min":93,"x_max":713,"o":"m 93 0 l 93 982 l 211 982 l 211 417 l 339 417 l 558 732 l 692 732 l 447 383 l 713 0 l 574 0 l 353 314 l 211 314 l 211 0 l 93 0 z "},"l":{"ha":304,"x_min":93,"x_max":211,"o":"m 93 0 l 93 982 l 211 982 l 211 0 l 93 0 z "},"m":{"ha":1138,"x_min":93,"x_max":1051,"o":"m 93 0 l 93 732 l 207 732 l 213 644 q 266 699 236 678 q 333 730 296 719 q 411 740 369 740 q 535 708 488 740 q 606 622 582 675 q 663 686 631 660 q 737 726 696 713 q 828 740 778 740 q 958 706 908 740 q 1029 612 1007 671 q 1051 479 1051 553 l 1051 0 l 933 0 l 933 419 q 930 493 933 456 q 913 563 926 531 q 872 616 899 596 q 796 636 844 636 q 719 615 750 636 q 668 557 688 593 q 640 480 649 521 q 632 399 632 439 l 632 0 l 514 0 l 514 421 q 510 493 514 456 q 495 563 507 531 q 456 616 483 596 q 382 636 429 636 q 278 598 315 636 q 226 505 240 560 q 211 397 211 450 l 211 0 l 93 0 z "},"n":{"ha":821,"x_min":93,"x_max":732,"o":"m 93 0 l 93 732 l 207 732 l 213 621 q 276 688 238 661 q 362 727 315 714 q 453 740 408 740 q 620 696 560 740 q 706 576 681 651 q 732 404 732 500 l 732 0 l 614 0 l 614 372 q 608 471 614 424 q 583 556 601 518 q 529 615 564 593 q 436 636 494 636 q 313 596 364 636 q 237 488 263 556 q 211 335 211 419 l 211 0 l 93 0 z "},"o":{"ha":826,"x_min":65,"x_max":761,"o":"m 413 -8 q 219 40 297 -8 q 103 172 142 88 q 65 365 65 257 q 104 559 65 475 q 221 692 143 643 q 415 740 299 740 q 608 692 531 740 q 723 559 685 643 q 761 365 761 475 q 722 172 761 257 q 606 40 683 88 q 413 -8 529 -8 m 413 96 q 544 132 493 96 q 619 229 594 168 q 643 365 643 290 q 619 501 643 440 q 544 599 594 563 q 413 635 493 635 q 283 599 333 635 q 208 501 232 563 q 183 365 183 440 q 208 229 183 290 q 283 132 232 168 q 413 96 333 96 z "},"p":{"ha":839,"x_min":93,"x_max":774,"o":"m 93 -264 l 93 732 l 206 732 l 211 622 q 313 710 249 679 q 453 740 378 740 q 635 691 564 740 q 740 557 706 642 q 774 365 774 472 q 739 174 774 258 q 632 40 704 89 q 447 -8 560 -8 q 347 3 392 -8 q 269 38 303 15 q 211 92 236 61 l 211 -264 l 93 -264 m 438 96 q 565 133 518 96 q 634 231 613 169 q 656 365 656 292 q 634 501 656 440 q 564 599 613 563 q 435 635 515 635 q 312 598 363 635 q 235 499 261 561 q 208 364 208 438 q 233 226 208 288 q 310 131 258 165 q 438 96 361 96 z "},"q":{"ha":839,"x_min":65,"x_max":746,"o":"m 628 -264 l 628 110 q 525 19 592 46 q 386 -8 458 -8 q 242 20 303 -8 q 142 99 181 49 q 84 217 103 149 q 65 364 65 285 q 100 555 65 469 q 207 690 135 640 q 392 740 279 740 q 521 717 456 740 q 628 640 586 693 l 633 732 l 746 732 l 746 -264 l 628 -264 m 403 96 q 524 133 474 96 q 602 232 575 169 q 629 369 629 294 q 603 506 629 446 q 528 600 578 565 q 401 635 478 635 q 274 599 322 635 q 205 501 226 563 q 183 365 183 440 q 206 226 183 288 q 276 131 228 165 q 403 96 325 96 z "},"r":{"ha":518,"x_min":93,"x_max":494,"o":"m 93 0 l 93 732 l 207 732 l 213 618 q 277 688 240 661 q 359 727 314 714 q 457 740 404 740 q 476 740 467 740 q 494 740 485 740 l 494 629 l 451 629 q 312 592 365 629 q 235 494 258 556 q 211 357 211 432 l 211 0 l 93 0 z "},"s":{"ha":707,"x_min":54,"x_max":653,"o":"m 360 -8 q 259 1 310 -8 q 165 35 208 11 q 92 99 121 58 q 54 199 63 139 l 174 199 q 219 138 188 161 q 290 106 250 115 q 365 96 329 96 q 417 99 388 96 q 473 112 446 101 q 517 143 500 122 q 535 201 535 164 q 522 247 535 229 q 488 277 510 265 q 433 294 465 289 q 294 321 368 308 q 163 368 219 333 q 127 397 143 381 q 100 433 111 413 q 83 477 89 453 q 76 531 76 501 q 98 624 76 585 q 158 690 119 664 q 248 728 197 715 q 357 740 299 740 q 487 717 429 740 q 582 651 544 694 q 626 543 619 607 l 517 543 q 464 609 507 583 q 354 635 421 635 q 304 631 332 635 q 251 617 276 628 q 210 587 226 607 q 193 533 193 567 q 209 482 193 503 q 254 449 225 461 q 321 428 283 436 q 428 408 369 418 q 519 386 486 397 q 594 347 564 372 q 638 288 624 322 q 653 207 653 253 q 627 100 653 142 q 558 35 601 58 q 463 1 515 11 q 360 -8 411 -8 z "},"t":{"ha":514,"x_min":40,"x_max":474,"o":"m 390 0 q 256 25 307 0 q 183 103 206 50 q 160 236 160 156 l 160 628 l 40 628 l 40 732 l 160 732 l 160 950 l 278 950 l 278 732 l 474 732 l 474 628 l 278 628 l 278 249 q 305 138 278 174 q 415 103 332 103 l 469 103 l 469 0 l 390 0 z "},"u":{"ha":800,"x_min":90,"x_max":710,"o":"m 399 -8 q 169 72 247 -8 q 90 319 90 153 l 90 732 l 208 732 l 208 325 q 229 201 208 253 q 292 123 250 150 q 399 96 335 96 q 508 123 465 96 q 572 201 551 150 q 592 325 592 253 l 592 732 l 710 732 l 710 319 q 630 72 710 153 q 399 -8 550 -8 z "},"v":{"ha":744,"x_min":10,"x_max":735,"o":"m 292 0 l 10 732 l 143 732 l 374 114 l 600 732 l 735 732 l 453 0 l 292 0 z "},"w":{"ha":1171,"x_min":17,"x_max":1154,"o":"m 244 0 l 17 732 l 150 732 l 325 114 l 506 732 l 665 732 l 847 114 l 1019 732 l 1154 732 l 926 0 l 765 0 l 585 593 l 404 0 l 244 0 z "},"x":{"ha":715,"x_min":19,"x_max":696,"o":"m 19 0 l 281 374 l 32 732 l 174 732 l 360 454 l 540 732 l 678 732 l 431 369 l 696 0 l 556 0 l 353 279 l 153 0 l 19 0 z "},"y":{"ha":829,"x_min":93,"x_max":736,"o":"m 415 -328 q 252 -304 331 -328 q 111 -222 174 -281 l 163 -129 q 278 -197 217 -172 q 408 -222 340 -222 q 572 -156 522 -222 q 621 11 621 -90 l 621 99 q 558 37 596 61 q 474 1 519 13 q 379 -11 428 -11 q 208 32 271 -11 q 119 151 146 75 q 93 328 93 228 l 93 732 l 211 732 l 211 361 q 217 263 211 311 q 243 177 224 215 q 300 116 263 139 q 400 93 338 93 q 527 132 479 93 q 597 236 575 171 q 618 381 618 301 l 618 732 l 736 732 l 736 0 q 715 -140 736 -79 q 653 -243 694 -201 q 552 -306 611 -285 q 415 -328 493 -328 z "},"z":{"ha":719,"x_min":65,"x_max":654,"o":"m 65 0 l 65 100 l 503 628 l 65 628 l 65 732 l 654 732 l 654 633 l 213 103 l 654 103 l 654 0 l 65 0 z "}," ":{"ha":375,"x_min":0,"x_max":0,"o":""},".":{"ha":353,"x_min":93,"x_max":260,"o":"m 176 -11 q 117 13 140 -11 q 93 72 93 36 q 117 132 93 108 q 176 156 140 156 q 236 132 213 156 q 260 72 260 108 q 236 13 260 36 q 176 -11 213 -11 z "},",":{"ha":363,"x_min":93,"x_max":268,"o":"m 126 -168 l 93 -122 q 129 -89 113 -108 q 159 -47 146 -69 q 178 -3 172 -25 q 119 21 142 0 q 97 76 97 42 q 123 134 99 113 q 179 156 147 156 q 244 126 219 156 q 268 44 268 97 q 248 -42 268 3 q 196 -120 228 -86 q 126 -168 164 -154 z "},":":{"ha":351,"x_min":93,"x_max":258,"o":"m 175 483 q 116 507 139 483 q 93 567 93 531 q 103 610 93 592 q 133 640 114 629 q 175 650 151 650 q 235 626 213 650 q 258 567 258 603 q 234 506 258 529 q 175 483 210 483 m 175 -11 q 116 13 139 -11 q 93 72 93 36 q 103 116 93 97 q 133 145 114 135 q 175 156 151 156 q 235 132 213 156 q 258 72 258 108 q 234 13 258 36 q 175 -11 210 -11 z "},";":{"ha":363,"x_min":93,"x_max":268,"o":"m 126 -169 l 93 -124 q 129 -90 113 -110 q 159 -49 146 -71 q 178 -4 172 -26 q 119 19 142 -1 q 97 75 97 40 q 122 136 97 114 q 183 156 147 158 q 248 119 228 154 q 268 40 268 85 q 248 -45 268 -1 q 196 -122 228 -89 q 126 -169 164 -156 m 185 483 q 126 507 149 483 q 103 567 103 531 q 113 610 103 592 q 142 640 124 629 q 185 650 161 650 q 244 626 221 650 q 268 567 268 603 q 244 506 268 529 q 185 483 221 483 z "},"…":{"ha":968,"x_min":79,"x_max":889,"o":"m 806 -11 q 747 13 769 -11 q 724 72 724 36 q 734 116 724 97 q 763 145 744 135 q 806 156 782 156 q 865 132 840 156 q 889 72 889 108 q 865 13 889 36 q 806 -11 840 -11 m 161 -11 q 102 13 125 -11 q 79 72 79 36 q 90 116 79 97 q 119 145 100 135 q 161 156 138 156 q 220 132 196 156 q 244 72 244 108 q 220 13 244 36 q 161 -11 196 -11 m 486 -11 q 427 13 450 -11 q 404 72 404 36 q 415 116 404 97 q 444 145 425 135 q 486 156 463 156 q 545 132 521 156 q 569 72 569 108 q 545 13 569 36 q 486 -11 521 -11 z "},"!":{"ha":379,"x_min":107,"x_max":272,"o":"m 138 306 l 121 982 l 256 982 l 239 306 l 138 306 m 189 -11 q 147 -1 165 -11 q 117 29 128 10 q 107 72 107 49 q 117 116 107 97 q 147 145 128 135 q 189 156 165 156 q 248 132 224 156 q 272 72 272 108 q 261 29 272 49 q 231 -1 250 10 q 189 -11 213 -11 z "},"?":{"ha":713,"x_min":51,"x_max":636,"o":"m 265 296 q 264 310 264 303 q 264 325 264 318 q 282 414 264 376 q 329 483 300 451 q 391 542 358 514 q 454 603 424 571 q 486 645 472 622 q 508 693 500 668 q 515 740 515 718 q 494 819 515 788 q 438 867 474 851 q 353 883 401 883 q 277 873 315 883 q 211 838 239 863 q 174 772 183 814 l 51 772 q 85 869 58 828 q 154 938 113 911 q 247 979 196 965 q 351 993 297 993 q 490 967 425 993 q 596 888 556 942 q 636 746 636 833 q 625 666 636 703 q 592 597 614 629 q 542 533 571 564 q 469 463 506 494 q 410 397 433 432 q 386 307 386 361 q 386 301 386 304 q 386 296 386 299 l 265 296 m 324 -11 q 265 13 288 -11 q 242 72 242 36 q 265 132 242 108 q 324 156 288 156 q 383 132 360 156 q 407 72 407 108 q 383 13 407 36 q 324 -11 360 -11 z "},"•":{"ha":472,"x_min":82,"x_max":390,"o":"m 238 356 q 163 372 199 356 q 105 422 128 389 q 82 506 82 456 q 127 619 82 578 q 239 660 172 660 q 315 641 281 660 q 370 588 350 622 q 390 506 390 554 q 345 397 390 438 q 238 356 300 356 z "},"*":{"ha":575,"x_min":96,"x_max":479,"o":"m 208 649 l 144 696 l 224 804 l 96 846 l 119 921 l 247 879 l 247 1014 l 328 1014 l 328 879 l 454 921 l 479 846 l 351 804 l 431 696 l 367 649 l 288 757 l 208 649 z "},"#":{"ha":907,"x_min":82,"x_max":825,"o":"m 188 0 l 215 249 l 82 249 l 82 360 l 226 360 l 256 622 l 122 622 l 122 732 l 268 732 l 293 982 l 411 982 l 385 732 l 574 732 l 601 982 l 718 982 l 692 732 l 825 732 l 825 622 l 679 622 l 651 360 l 785 360 l 785 249 l 639 249 l 613 0 l 496 0 l 522 249 l 332 249 l 306 0 l 188 0 m 343 360 l 533 360 l 563 622 l 372 622 l 343 360 z "},"/":{"ha":663,"x_min":54,"x_max":608,"o":"m 54 -233 l 483 1113 l 608 1113 l 179 -233 l 54 -233 z "},"\\":{"ha":663,"x_min":54,"x_max":608,"o":"m 483 -233 l 54 1113 l 179 1113 l 608 -233 l 483 -233 z "},"-":{"ha":636,"x_min":103,"x_max":533,"o":"m 103 338 l 103 446 l 533 446 l 533 338 l 103 338 z "},"–":{"ha":803,"x_min":103,"x_max":700,"o":"m 103 338 l 103 446 l 700 446 l 700 338 l 103 338 z "},"—":{"ha":1054,"x_min":103,"x_max":951,"o":"m 103 338 l 103 446 l 951 446 l 951 338 l 103 338 z "},"_":{"ha":643,"x_min":-4,"x_max":647,"o":"m -4 -242 l -4 -135 l 647 -135 l 647 -242 l -4 -242 z "},"(":{"ha":428,"x_min":90,"x_max":469,"o":"m 339 -294 q 201 -74 256 -196 q 118 176 146 47 q 90 419 90 304 q 119 664 90 536 q 203 915 147 792 q 342 1136 258 1038 l 469 1136 q 315 890 372 1008 q 233 656 257 772 q 208 419 208 540 q 234 182 208 297 q 317 -50 260 67 q 467 -294 374 -167 l 339 -294 z "},")":{"ha":428,"x_min":-42,"x_max":338,"o":"m 89 -294 l -39 -294 q 111 -50 54 -167 q 194 182 168 67 q 219 419 219 297 q 195 656 219 540 q 114 890 171 772 q -42 1136 57 1008 l 86 1136 q 226 915 169 1038 q 310 664 282 792 q 338 419 338 536 q 310 176 338 304 q 228 -74 283 47 q 89 -294 172 -196 z "},"{":{"ha":540,"x_min":51,"x_max":458,"o":"m 350 -258 q 232 -227 276 -258 q 188 -110 188 -196 l 188 194 q 178 284 188 243 q 139 350 168 325 q 51 375 110 375 l 51 465 q 139 490 110 465 q 178 556 168 514 q 188 646 188 597 l 188 950 q 232 1067 188 1036 q 350 1099 276 1099 l 458 1099 l 458 999 l 363 999 q 319 985 332 999 q 305 949 307 972 q 303 893 303 925 l 303 607 q 283 493 303 540 q 208 419 264 446 q 266 375 246 403 q 294 312 286 347 q 303 233 303 276 l 303 -53 q 305 -108 303 -83 q 319 -145 307 -132 q 363 -158 332 -158 l 458 -158 l 458 -258 l 350 -258 z "},"}":{"ha":540,"x_min":82,"x_max":489,"o":"m 190 -258 l 82 -258 l 82 -158 l 178 -158 q 222 -145 210 -158 q 235 -108 233 -132 q 238 -53 238 -83 l 238 233 q 246 312 238 276 q 275 375 254 347 q 332 419 296 403 q 257 493 276 446 q 238 607 238 540 l 238 893 q 235 949 238 925 q 222 985 233 972 q 178 999 210 999 l 82 999 l 82 1099 l 190 1099 q 308 1067 264 1099 q 353 950 353 1036 l 353 646 q 363 556 353 597 q 401 490 372 514 q 489 465 431 465 l 489 375 q 401 350 431 375 q 363 284 372 325 q 353 194 353 243 l 353 -110 q 308 -227 353 -196 q 190 -258 264 -258 z "},"[":{"ha":446,"x_min":121,"x_max":397,"o":"m 121 -258 l 121 1099 l 397 1099 l 397 999 l 236 999 l 236 -158 l 397 -158 l 397 -258 l 121 -258 z "},"]":{"ha":446,"x_min":49,"x_max":325,"o":"m 49 -258 l 49 -158 l 210 -158 l 210 999 l 49 999 l 49 1099 l 325 1099 l 325 -258 l 49 -258 z "},"“":{"ha":625,"x_min":94,"x_max":532,"o":"m 446 710 q 378 744 399 713 q 357 817 357 776 q 377 910 357 865 q 429 989 397 956 q 499 1035 461 1022 l 532 989 q 497 956 514 976 q 466 914 479 936 q 447 869 453 892 q 490 858 472 868 q 518 831 508 847 q 528 790 528 814 q 504 730 528 751 q 446 710 481 708 m 185 710 q 115 744 136 711 q 94 817 94 776 q 115 910 94 865 q 167 989 135 956 q 236 1035 199 1022 l 269 989 q 234 956 251 976 q 203 914 217 936 q 185 869 190 892 q 228 858 210 868 q 256 831 246 847 q 265 790 265 814 q 241 731 265 751 q 185 710 217 710 z "},"”":{"ha":625,"x_min":93,"x_max":531,"o":"m 389 692 l 356 738 q 392 771 375 751 q 422 813 408 790 q 440 857 435 835 q 382 881 404 860 q 360 936 360 901 q 385 997 360 975 q 447 1017 410 1018 q 512 981 493 1015 q 531 907 531 947 q 511 817 531 861 q 459 739 492 772 q 389 692 426 706 m 126 692 l 93 738 q 129 771 113 751 q 159 813 146 790 q 178 857 172 835 q 119 881 142 860 q 97 936 97 901 q 122 997 97 975 q 185 1017 147 1018 q 249 981 231 1015 q 268 907 268 947 q 248 817 268 861 q 196 739 228 772 q 126 692 164 706 z "},"‘":{"ha":363,"x_min":94,"x_max":269,"o":"m 185 710 q 116 744 138 710 q 94 819 94 778 q 115 910 94 865 q 167 988 135 954 q 236 1035 199 1022 l 269 989 q 234 956 251 976 q 203 914 217 936 q 185 869 190 892 q 228 858 210 868 q 256 831 246 847 q 265 790 265 814 q 240 730 265 751 q 185 710 215 708 z "},"’":{"ha":363,"x_min":93,"x_max":268,"o":"m 126 692 l 93 738 q 129 771 113 751 q 159 813 146 790 q 178 857 172 835 q 119 881 142 860 q 97 936 97 901 q 122 996 97 975 q 183 1017 146 1017 q 249 982 231 1017 q 268 907 268 947 q 248 817 268 861 q 196 739 228 772 q 126 692 164 706 z "},"\"":{"ha":499,"x_min":82,"x_max":417,"o":"m 313 654 l 294 982 l 417 982 l 399 654 l 313 654 m 100 654 l 82 982 l 204 982 l 186 654 l 100 654 z "},"'":{"ha":308,"x_min":93,"x_max":215,"o":"m 111 654 l 93 982 l 215 982 l 197 654 l 111 654 z "},"@":{"ha":1365,"x_min":97,"x_max":1269,"o":"m 669 -258 q 427 -214 533 -258 q 247 -90 321 -169 q 135 94 174 -11 q 97 322 97 200 q 138 590 97 468 q 259 803 179 713 q 456 943 339 893 q 725 993 572 993 q 957 949 856 993 q 1128 827 1058 906 q 1233 645 1197 749 q 1269 422 1269 542 q 1260 301 1269 367 q 1226 178 1251 236 q 1150 83 1200 119 q 1018 46 1100 46 q 910 79 951 46 q 854 165 868 113 q 792 97 826 121 q 720 63 758 72 q 639 53 682 53 q 500 97 553 54 q 424 203 447 139 q 400 332 400 268 q 419 458 401 397 q 474 569 438 519 q 565 647 511 618 q 692 675 619 676 q 763 665 729 675 q 823 633 796 656 q 865 575 850 611 l 903 647 l 979 639 q 957 485 967 563 q 940 332 947 408 q 940 247 938 290 q 960 175 942 204 q 1025 146 979 146 q 1096 175 1069 146 q 1135 247 1122 204 q 1153 334 1149 290 q 1157 408 1157 378 q 1130 592 1157 507 q 1049 742 1103 678 q 914 844 994 807 q 725 881 833 881 q 506 838 600 881 q 349 720 413 796 q 254 545 286 644 q 222 333 222 446 q 277 92 222 199 q 435 -76 332 -15 q 683 -137 539 -137 q 738 -136 717 -137 q 780 -132 760 -135 q 829 -124 800 -129 l 839 -240 q 756 -254 792 -250 q 669 -258 719 -258 m 657 153 q 752 181 714 153 q 812 255 790 208 q 839 358 833 301 q 830 459 844 411 q 781 538 815 507 q 690 569 747 569 q 589 533 628 569 q 532 443 550 497 q 514 335 514 389 q 519 281 514 313 q 540 221 525 250 q 583 172 554 192 q 657 153 611 153 z "},"&":{"ha":940,"x_min":93,"x_max":907,"o":"m 393 -11 q 279 6 333 -11 q 183 55 225 22 q 117 138 142 88 q 93 254 93 188 q 117 367 93 317 q 188 457 142 417 q 297 529 233 497 q 216 636 243 581 q 189 751 189 692 q 217 870 189 815 q 301 959 244 925 q 447 993 358 993 q 565 968 514 993 q 646 894 617 943 q 675 776 675 846 q 647 668 675 718 q 571 578 618 618 q 465 507 524 538 l 674 260 q 713 338 697 292 q 735 433 728 383 l 851 433 q 817 291 844 354 q 751 175 789 228 l 907 0 l 749 0 l 671 86 q 542 11 613 33 q 393 -11 472 -11 m 413 99 q 509 114 460 99 q 601 172 558 129 l 360 450 q 289 403 321 431 q 238 339 257 375 q 219 257 219 303 q 248 169 219 204 q 321 116 276 133 q 413 99 365 99 m 397 579 q 469 626 431 599 q 534 690 507 654 q 561 764 561 725 q 546 827 561 800 q 503 869 531 854 q 438 883 475 883 q 341 850 375 883 q 307 758 307 817 q 322 688 307 721 q 358 628 336 656 q 397 579 379 601 z "},"©":{"ha":1288,"x_min":82,"x_max":1206,"o":"m 643 -169 q 350 -99 476 -169 q 153 101 224 -29 q 82 411 82 232 q 154 719 82 589 q 353 922 226 850 q 643 993 479 993 q 935 922 808 993 q 1133 719 1061 850 q 1206 411 1206 589 q 1135 101 1206 232 q 938 -99 1064 -29 q 643 -169 811 -169 m 643 -67 q 878 -8 778 -67 q 1036 157 979 50 q 1093 411 1093 264 q 1035 666 1093 558 q 876 832 978 774 q 643 890 775 890 q 410 832 513 890 q 251 666 308 774 q 193 411 193 558 q 250 157 193 264 q 408 -8 307 50 q 643 -67 510 -67 m 653 115 q 502 153 563 115 q 412 259 442 192 q 382 413 382 326 q 413 565 382 499 q 503 670 443 632 q 651 708 563 708 q 814 665 751 708 q 896 521 876 621 l 783 521 q 736 588 771 569 q 653 607 701 607 q 561 580 596 607 q 510 509 526 553 q 494 413 494 465 q 510 315 494 360 q 562 244 526 271 q 654 217 597 217 q 738 235 703 217 q 786 303 774 254 l 901 303 q 854 197 889 239 q 769 135 819 156 q 653 115 718 115 z "},"®":{"ha":671,"x_min":72,"x_max":599,"o":"m 336 507 q 196 538 256 507 q 104 628 136 569 q 72 767 72 686 q 104 907 72 847 q 196 1000 136 967 q 336 1033 256 1033 q 476 1000 418 1033 q 567 907 535 967 q 599 767 599 847 q 567 628 599 686 q 476 538 535 569 q 336 507 418 507 m 336 572 q 479 624 428 572 q 531 767 531 675 q 480 915 531 858 q 336 971 429 971 q 191 915 243 971 q 139 767 139 858 q 192 624 139 675 q 336 572 244 572 m 236 638 l 236 911 l 351 911 q 424 892 396 911 q 451 824 451 872 q 439 772 451 792 q 400 742 426 751 l 469 638 l 396 638 l 331 733 l 297 733 l 297 638 l 236 638 m 297 789 l 351 789 q 379 797 368 789 q 390 822 390 806 q 380 845 390 838 q 356 853 369 853 l 297 853 l 297 789 z "},"™":{"ha":933,"x_min":82,"x_max":851,"o":"m 442 618 l 442 982 l 575 982 l 647 822 l 719 982 l 851 982 l 851 618 l 764 618 l 764 893 l 672 693 l 621 693 l 529 893 l 529 618 l 442 618 m 200 618 l 200 900 l 82 900 l 82 982 l 408 982 l 408 900 l 289 900 l 289 618 l 200 618 z "},"|":{"ha":363,"x_min":121,"x_max":242,"o":"m 121 -233 l 121 1113 l 242 1113 l 242 -233 l 121 -233 z "},"¢":{"ha":811,"x_min":82,"x_max":729,"o":"m 357 -222 l 357 -3 q 204 63 265 13 q 113 191 143 113 q 82 365 82 269 q 113 540 82 463 q 205 669 143 618 q 357 735 267 721 l 357 932 l 478 932 l 478 738 q 639 677 574 729 q 724 522 704 625 l 603 522 q 540 609 586 583 q 433 635 494 635 q 298 597 350 635 q 223 499 246 560 q 200 365 200 438 q 227 228 200 289 q 306 131 254 167 q 429 96 357 96 q 539 120 488 96 q 607 210 590 144 l 729 210 q 640 57 710 108 q 478 -6 571 6 l 478 -222 l 357 -222 z "},"$":{"ha":911,"x_min":82,"x_max":828,"o":"m 404 -192 l 404 -7 q 259 31 326 1 q 145 116 192 60 q 82 257 99 172 l 208 257 q 272 160 228 194 q 372 112 315 125 q 486 99 429 99 q 592 115 543 99 q 673 167 642 131 q 704 260 704 203 q 688 332 704 304 q 644 377 672 360 q 576 406 615 394 q 467 433 525 422 q 352 458 408 443 q 247 497 296 472 q 153 582 189 529 q 117 718 117 635 q 158 867 117 808 q 266 956 199 925 q 411 992 333 986 l 411 1172 l 533 1172 l 533 989 q 666 951 607 982 q 761 865 725 919 q 800 731 797 811 l 682 731 q 643 822 675 789 q 564 869 611 856 q 464 883 517 883 q 361 870 413 883 q 276 824 310 857 q 242 729 242 790 q 255 665 242 693 q 290 619 268 638 q 340 589 313 601 q 488 547 407 561 q 642 508 569 532 q 742 460 700 490 q 806 385 783 431 q 828 276 828 340 q 787 121 828 182 q 678 28 746 60 q 525 -10 610 -4 l 525 -192 l 404 -192 z "},"€":{"ha":943,"x_min":68,"x_max":875,"o":"m 604 -11 q 419 26 499 -11 q 287 137 339 64 q 210 313 235 210 l 68 313 l 86 421 l 201 421 q 199 472 200 451 q 199 513 199 492 q 203 563 200 533 l 68 563 l 86 671 l 217 671 q 347 908 253 822 q 600 993 442 993 q 748 971 683 993 q 865 897 813 949 l 804 810 q 711 866 760 849 q 599 883 663 883 q 467 853 521 883 q 381 774 413 822 q 336 671 350 726 l 714 671 l 696 563 l 318 563 q 313 517 315 543 q 313 466 311 492 q 318 421 314 440 l 671 421 l 653 313 l 335 313 q 428 156 358 217 q 611 96 499 96 q 722 110 675 96 q 817 168 769 125 l 875 90 q 756 14 824 39 q 604 -11 689 -11 z "},"£":{"ha":811,"x_min":82,"x_max":729,"o":"m 82 0 l 82 110 l 196 110 l 196 413 l 82 413 l 82 522 l 196 522 l 196 724 q 228 871 196 811 q 324 962 261 931 q 472 993 386 993 q 643 942 571 993 q 724 788 715 892 l 608 788 q 585 840 604 818 q 538 872 565 861 q 476 883 510 883 q 397 871 433 883 q 337 824 360 858 q 314 719 314 789 l 314 522 l 603 522 l 603 413 l 314 413 l 314 110 l 729 110 l 729 0 l 82 0 z "},"¥":{"ha":922,"x_min":54,"x_max":868,"o":"m 401 0 l 401 124 l 200 124 l 200 231 l 401 231 l 401 343 l 200 343 l 200 450 l 356 450 l 54 982 l 193 982 l 464 490 l 731 982 l 868 982 l 568 450 l 721 450 l 721 343 l 522 343 l 522 231 l 721 231 l 721 124 l 522 124 l 522 0 l 401 0 z "},"+":{"ha":764,"x_min":124,"x_max":642,"o":"m 328 222 l 328 438 l 124 438 l 124 544 l 328 544 l 328 760 l 436 760 l 436 544 l 642 544 l 642 438 l 436 438 l 436 222 l 328 222 z "},"=":{"ha":764,"x_min":101,"x_max":663,"o":"m 101 617 l 101 725 l 663 725 l 663 617 l 101 617 m 101 257 l 101 365 l 663 365 l 663 257 l 101 257 z "},">":{"ha":764,"x_min":147,"x_max":617,"o":"m 147 138 l 147 267 l 482 488 l 147 707 l 147 836 l 617 517 l 617 457 l 147 138 z "},"<":{"ha":764,"x_min":147,"x_max":617,"o":"m 617 138 l 147 457 l 147 517 l 617 836 l 617 707 l 282 488 l 617 267 l 617 138 z "},"~":{"ha":764,"x_min":58,"x_max":707,"o":"m 518 365 q 422 396 463 365 q 349 458 382 426 q 297 504 322 485 q 243 524 271 524 q 190 498 207 524 q 167 438 172 472 q 163 376 163 404 l 58 376 q 67 465 58 422 q 96 544 75 508 q 153 600 117 579 q 246 621 190 621 q 342 590 301 621 q 415 528 382 560 q 468 481 443 501 q 521 461 493 461 q 576 487 558 461 q 598 547 593 513 q 603 610 603 582 l 707 610 q 697 521 706 564 q 667 442 688 478 q 610 386 646 407 q 518 365 574 365 z "},"^":{"ha":764,"x_min":143,"x_max":622,"o":"m 143 711 l 340 993 l 424 993 l 622 711 l 503 711 l 382 893 l 261 711 l 143 711 z "},"%":{"ha":1117,"x_min":82,"x_max":1035,"o":"m 193 0 l 797 982 l 919 982 l 317 0 l 193 0 m 835 -8 q 723 21 768 -8 q 654 99 678 50 q 631 210 631 149 q 654 322 631 274 q 724 399 678 371 q 835 426 769 426 q 943 399 899 426 q 1011 322 988 371 q 1035 210 1035 274 q 1011 99 1035 149 q 943 21 988 50 q 835 -8 899 -8 m 833 90 q 891 107 869 90 q 922 151 913 124 q 931 210 931 179 q 922 267 931 240 q 891 311 913 294 q 833 328 869 328 q 755 292 778 328 q 732 210 732 256 q 756 126 732 161 q 833 90 779 90 m 285 558 q 173 588 218 558 q 105 666 128 617 q 82 776 82 715 q 105 889 82 840 q 174 965 128 938 q 285 993 219 993 q 394 965 350 993 q 462 889 439 938 q 485 776 485 840 q 462 666 485 715 q 394 588 439 617 q 285 558 350 558 m 285 657 q 342 674 321 657 q 372 718 363 690 q 382 776 382 746 q 372 834 382 807 q 342 878 363 861 q 285 894 321 894 q 206 858 229 894 q 182 776 182 822 q 206 692 182 728 q 285 657 229 657 z "},"`":{"ha":0,"x_min":-172,"x_max":74,"o":"m -33 842 l -172 1038 l -44 1038 l 74 842 l -33 842 z "},"´":{"ha":0,"x_min":-56,"x_max":190,"o":"m -56 850 l 63 1046 l 190 1046 l 51 850 l -56 850 z "}}}
